<svg xmlns="http://www.w3.org/2000/svg" viewBox="122.5 55.6 60 60" width="100%" height="100%" fill="none">
  <path d="M152.514 115.67C169.082 115.67 182.514 102.238 182.514 85.6699C182.514 69.1014 169.082 55.6699 152.514 55.6699C135.945 55.6699 122.514 69.1014 122.514 85.6699C122.514 102.238 135.945 115.67 152.514 115.67Z" fill="url(#paint0_radial)"/>
  
  <path d="M144.514 84.6699C147.275 84.6699 149.514 82.4313 149.514 79.6699C149.514 76.9085 147.275 74.6699 144.514 74.6699C141.752 74.6699 139.514 76.9085 139.514 79.6699C139.514 82.4313 141.752 84.6699 144.514 84.6699Z" fill="#AC945F" fill-opacity="0.18"/>
  <path d="M158.514 91.1699C160.447 91.1699 162.014 89.6029 162.014 87.6699C162.014 85.7369 160.447 84.1699 158.514 84.1699C156.581 84.1699 155.014 85.7369 155.014 87.6699C155.014 89.6029 156.581 91.1699 158.514 91.1699Z" fill="#AC945F" fill-opacity="0.15"/>
  <path d="M148.514 96.1699C149.894 96.1699 151.014 95.0506 151.014 93.6699C151.014 92.2892 149.894 91.1699 148.514 91.1699C147.133 91.1699 146.014 92.2892 146.014 93.6699C146.014 95.0506 147.133 96.1699 148.514 96.1699Z" fill="#AC945F" fill-opacity="0.12"/>
  
  <defs>
    <radialGradient id="paint0_radial" cx="0" cy="0" r="1" gradientUnits="userSpaceOnUse" gradientTransform="translate(143.514 74.8699) scale(40.8)">
      <stop stop-color="white"/>
      <stop offset="0.45" stop-color="#F5F0E9"/>
      <stop offset="1" stop-color="#E0C58F"/>
    </radialGradient>
  </defs>
</svg>
