<svg width="102" height="102" viewBox="0 0 102 102" fill="none" xmlns="http://www.w3.org/2000/svg">
<g filter="url(#filter0_ddd_38_21548)">
<path d="M58.9436 51.4527C58.7994 53.013 58.2138 54.5001 57.2553 55.7397C56.2969 56.9794 55.0051 57.9205 53.5313 58.4528C52.0575 58.9852 50.4626 59.0868 48.9331 58.7458C47.4037 58.4047 46.003 57.6352 44.895 56.5271C43.7869 55.4191 43.0174 54.0184 42.6764 52.489C42.3353 50.9595 42.4369 49.3646 42.9693 47.8908C43.5016 46.417 44.4427 45.1253 45.6824 44.1668C46.9221 43.2083 48.4091 42.6227 49.9694 42.4785C49.0559 43.7144 48.6163 45.2372 48.7306 46.7698C48.8449 48.3024 49.5055 49.7432 50.5922 50.8299C51.679 51.9166 53.1197 52.5772 54.6523 52.6915C56.1849 52.8058 57.7077 52.3662 58.9436 51.4527Z" fill="#E0C58F"/>
</g>
<defs>
<filter id="filter0_ddd_38_21548" x="-2.78497" y="-2.75008" width="106.957" height="106.957" filterUnits="userSpaceOnUse" color-interpolation-filters="sRGB">
<feFlood flood-opacity="0" result="BackgroundImageFix"/>
<feColorMatrix in="SourceAlpha" type="matrix" values="0 0 0 0 0 0 0 0 0 0 0 0 0 0 0 0 0 0 127 0" result="hardAlpha"/>
<feOffset/>
<feGaussianBlur stdDeviation="3.71798"/>
<feColorMatrix type="matrix" values="0 0 0 0 0.878431 0 0 0 0 0.772549 0 0 0 0 0.560784 0 0 0 0.01 0"/>
<feBlend mode="normal" in2="BackgroundImageFix" result="effect1_dropShadow_38_21548"/>
<feColorMatrix in="SourceAlpha" type="matrix" values="0 0 0 0 0 0 0 0 0 0 0 0 0 0 0 0 0 0 127 0" result="hardAlpha"/>
<feOffset/>
<feGaussianBlur stdDeviation="21.2393"/>
<feColorMatrix type="matrix" values="0 0 0 0 0.878431 0 0 0 0 0.772549 0 0 0 0 0.560784 0 0 0 0.082 0"/>
<feBlend mode="normal" in2="effect1_dropShadow_38_21548" result="effect2_dropShadow_38_21548"/>
<feColorMatrix in="SourceAlpha" type="matrix" values="0 0 0 0 0 0 0 0 0 0 0 0 0 0 0 0 0 0 127 0" result="hardAlpha"/>
<feOffset/>
<feGaussianBlur stdDeviation="6.41311"/>
<feColorMatrix type="matrix" values="0 0 0 0 0.878431 0 0 0 0 0.772549 0 0 0 0 0.560784 0 0 0 0.32 0"/>
<feBlend mode="normal" in2="effect2_dropShadow_38_21548" result="effect3_dropShadow_38_21548"/>
<feBlend mode="normal" in="SourceGraphic" in2="effect3_dropShadow_38_21548" result="shape"/>
</filter>
</defs>
</svg>
